<svg xmlns="http://www.w3.org/2000/svg" version="1.1" xmlns:xlink="http://www.w3.org/1999/xlink" xmlns:svgjs="http://svgjs.dev/svgjs" width="1400" height="780" preserveAspectRatio="none" viewBox="0 0 1400 780"><g mask="url(&quot;#SvgjsMask1067&quot;)" fill="none"><rect width="1400" height="780" x="0" y="0" fill="#0e2a47"></rect><path d="M0,604.803C114.687,621.786,230.275,572.742,326.951,508.746C422.835,445.275,508.512,357.313,540.656,246.909C571.218,141.939,498.332,38.01,495.827,-71.289C492.831,-202.017,587.181,-339.749,524.582,-454.553C462.074,-569.19,314.986,-610.786,187.153,-637.384C65.468,-662.703,-67.311,-660.151,-176.288,-600.383C-277.508,-544.87,-307.063,-418.61,-377.924,-327.473C-443.927,-242.584,-546.386,-185.808,-578.433,-83.166C-612.85,27.065,-620.326,157.27,-560.022,255.753C-500.796,352.475,-366.377,360.338,-270.128,420.328C-175.681,479.195,-110.089,588.5,0,604.803" fill="#091b2e"></path><path d="M1400 1195.195C1505.528 1220.854 1615.375 1315.232 1711.537 1264.76 1805.576 1215.402 1784.453 1072.1399999999999 1822.999 973.177 1858.7930000000001 881.281 1940.54 801.853 1930.033 703.793 1919.4560000000001 605.077 1836.298 533.192 1768.122 461.02 1702.561 391.617 1636.59 311.432 1542.756 293.818 1451.151 276.622 1371.042 352.276 1279.401 369.279 1173.031 389.015 1036.424 321.88 963.0450000000001 401.376 890.303 480.182 958.988 609.3240000000001 958.8340000000001 716.57 958.706 806.179 921.341 900.186 962.216 979.929 1002.6700000000001 1058.85 1093.084 1094.603 1172.6680000000001 1133.7359999999999 1244.567 1169.09 1322.147 1176.2649999999999 1400 1195.195" fill="#133960"></path></g><defs><mask id="SvgjsMask1067"><rect width="1400" height="780" fill="#ffffff"></rect></mask></defs></svg>